<mxfile host="65bd71144e">
    <diagram id="f106602c-feb2-e66a-4537-3a34d633f6aa" name="Page-1">
        <mxGraphModel dx="1362" dy="860" grid="1" gridSize="10" guides="1" tooltips="1" connect="1" arrows="1" fold="1" page="1" pageScale="1" pageWidth="1169" pageHeight="827" background="none" math="0" shadow="0">
            <root>
                <mxCell id="0"/>
                <mxCell id="1" parent="0"/>
                <mxCell id="653" value="Private subnet&amp;nbsp;&lt;br&gt;Subnet Mask: 225.225.225.192&lt;br&gt;Prefix /27 Class C&lt;br&gt;Host IP range:&amp;nbsp;&lt;br&gt;10.255.255.33 - 10.255.255.62" style="rounded=1;absoluteArcSize=1;arcSize=2;html=1;strokeColor=#4284F3;gradientColor=none;shadow=0;dashed=1;fontSize=12;fontColor=#9E9E9E;align=left;verticalAlign=top;spacing=10;spacingTop=-4;fillColor=none;dashPattern=1 2;strokeWidth=2;" parent="1" vertex="1">
                    <mxGeometry x="70" y="476.37" width="230" height="193.63" as="geometry"/>
                </mxCell>
                <mxCell id="2" value="NWT-06 Subnetting" style="fillColor=#4DA1F5;strokeColor=none;shadow=1;gradientColor=none;fontSize=14;align=left;spacingLeft=50;fontColor=#ffffff;html=1;" parent="1" vertex="1">
                    <mxGeometry x="19.5" y="10" width="720" height="40" as="geometry"/>
                </mxCell>
                <mxCell id="LnH4s1OGak1gRik8abLK-720" value="30 hosts" style="strokeColor=#dddddd;fillColor=#ffffff;shadow=1;strokeWidth=1;rounded=1;absoluteArcSize=1;arcSize=2;fontSize=10;fontColor=#9E9E9E;align=center;html=1;" parent="1" vertex="1">
                    <mxGeometry x="95" y="560" width="145" height="90" as="geometry"/>
                </mxCell>
                <mxCell id="LnH4s1OGak1gRik8abLK-748" value="Subnet Public Hosts&lt;br&gt;Subnet mask 225.225.225.248&lt;br&gt;Prefix /29 Class C&lt;br&gt;Host IP Range:&lt;br&gt;&lt;span style=&quot;background-color: rgb(248 , 249 , 250)&quot;&gt;.&lt;/span&gt;10.255.255.25 - 10.255.255.30" style="rounded=1;absoluteArcSize=1;arcSize=2;html=1;strokeColor=#4284F3;gradientColor=none;shadow=0;dashed=1;fontSize=12;fontColor=#9E9E9E;align=left;verticalAlign=top;spacing=10;spacingTop=-4;fillColor=none;dashPattern=1 2;strokeWidth=2;" parent="1" vertex="1">
                    <mxGeometry x="730" y="194" width="230" height="256" as="geometry"/>
                </mxCell>
                <mxCell id="LnH4s1OGak1gRik8abLK-749" value="5 Hosts&lt;br&gt;" style="strokeColor=#dddddd;fillColor=#ffffff;shadow=1;strokeWidth=1;rounded=1;absoluteArcSize=1;arcSize=2;fontSize=10;fontColor=#9E9E9E;align=center;html=1;" parent="1" vertex="1">
                    <mxGeometry x="765" y="310" width="155" height="126" as="geometry"/>
                </mxCell>
                <mxCell id="LnH4s1OGak1gRik8abLK-811" value="CLoud" style="html=1;strokeColor=none;fillColor=#0079D6;labelPosition=center;verticalLabelPosition=middle;verticalAlign=top;align=center;fontSize=12;outlineConnect=0;spacingTop=-6;fontColor=#FFFFFF;sketch=0;shape=mxgraph.sitemap.cloud;" parent="1" vertex="1">
                    <mxGeometry x="455" y="70" width="120" height="60" as="geometry"/>
                </mxCell>
                <mxCell id="LnH4s1OGak1gRik8abLK-827" value="Public Subnet NAT Gateway&lt;br&gt;Subnet mask: 225.225.225.248&lt;br&gt;Prefix /30 Class C&lt;br&gt;Private IP range:&lt;br&gt;10.255. 255.1 - 10.255.255.2" style="rounded=1;absoluteArcSize=1;arcSize=2;html=1;strokeColor=#4284F3;gradientColor=none;shadow=0;dashed=1;fontSize=12;fontColor=#9E9E9E;align=left;verticalAlign=top;spacing=10;spacingTop=-4;fillColor=none;dashPattern=1 2;strokeWidth=2;" parent="1" vertex="1">
                    <mxGeometry x="70" y="220" width="220" height="131.5" as="geometry"/>
                </mxCell>
                <mxCell id="LnH4s1OGak1gRik8abLK-829" style="edgeStyle=orthogonalEdgeStyle;rounded=0;orthogonalLoop=1;jettySize=auto;html=1;exitX=0.5;exitY=1;exitDx=0;exitDy=0;" parent="1" source="LnH4s1OGak1gRik8abLK-748" target="LnH4s1OGak1gRik8abLK-748" edge="1">
                    <mxGeometry relative="1" as="geometry"/>
                </mxCell>
                <mxCell id="LnH4s1OGak1gRik8abLK-833" value="Subnet Private Hosts&lt;br&gt;Subnet Mask: 225.225.225.244&lt;br&gt;Prefix /27 Class C&lt;br&gt;Host IP Range:&amp;nbsp;&lt;br&gt;10.255.255.65 - 10.255.255.94" style="rounded=1;absoluteArcSize=1;arcSize=2;html=1;strokeColor=#4284F3;gradientColor=none;shadow=0;dashed=1;fontSize=12;fontColor=#9E9E9E;align=left;verticalAlign=top;spacing=10;spacingTop=-4;fillColor=none;dashPattern=1 2;strokeWidth=2;" parent="1" vertex="1">
                    <mxGeometry x="660" y="510" width="280" height="260" as="geometry"/>
                </mxCell>
                <mxCell id="LnH4s1OGak1gRik8abLK-835" value="15 hosts" style="strokeColor=#dddddd;fillColor=#ffffff;shadow=1;strokeWidth=1;rounded=1;absoluteArcSize=1;arcSize=2;fontSize=10;fontColor=#9E9E9E;align=center;html=1;" parent="1" vertex="1">
                    <mxGeometry x="705" y="640" width="190" height="110" as="geometry"/>
                </mxCell>
                <mxCell id="LnH4s1OGak1gRik8abLK-836" value="" style="html=1;outlineConnect=0;whiteSpace=wrap;fillColor=#AFFFAF;shape=mxgraph.archimate3.path;strokeWidth=6;direction=south;" parent="1" vertex="1">
                    <mxGeometry x="130" y="364" width="30" height="100" as="geometry"/>
                </mxCell>
                <mxCell id="LnH4s1OGak1gRik8abLK-838" value="" style="html=1;outlineConnect=0;whiteSpace=wrap;fillColor=#AFFFAF;shape=mxgraph.archimate3.path;strokeWidth=6;direction=south;" parent="1" vertex="1">
                    <mxGeometry x="820" y="450" width="30" height="60" as="geometry"/>
                </mxCell>
                <mxCell id="LnH4s1OGak1gRik8abLK-839" value="" style="html=1;outlineConnect=0;whiteSpace=wrap;fillColor=#AFFFAF;shape=mxgraph.archimate3.path;strokeWidth=6;direction=west;" parent="1" vertex="1">
                    <mxGeometry x="300" y="219.5" width="140" height="30" as="geometry"/>
                </mxCell>
                <mxCell id="LnH4s1OGak1gRik8abLK-840" value="" style="html=1;outlineConnect=0;whiteSpace=wrap;fillColor=#AFFFAF;shape=mxgraph.archimate3.path;strokeWidth=6;direction=west;" parent="1" vertex="1">
                    <mxGeometry x="600" y="219.5" width="120" height="30" as="geometry"/>
                </mxCell>
                <mxCell id="LnH4s1OGak1gRik8abLK-843" value="" style="html=1;outlineConnect=0;whiteSpace=wrap;fillColor=#AFFFAF;shape=mxgraph.archimate3.path;strokeWidth=6;direction=west;" parent="1" vertex="1">
                    <mxGeometry x="310" y="590" width="340" height="30" as="geometry"/>
                </mxCell>
                <mxCell id="LnH4s1OGak1gRik8abLK-825" value="Internet Gateway&lt;br&gt;" style="sketch=0;outlineConnect=0;fontColor=#232F3E;gradientColor=none;strokeColor=#232F3E;fillColor=#ffffff;dashed=0;verticalLabelPosition=bottom;verticalAlign=top;align=center;html=1;fontSize=12;fontStyle=0;aspect=fixed;shape=mxgraph.aws4.resourceIcon;resIcon=mxgraph.aws4.nat_gateway;" parent="1" vertex="1">
                    <mxGeometry x="445" y="140" width="140" height="140" as="geometry"/>
                </mxCell>
                <mxCell id="LnH4s1OGak1gRik8abLK-844" value="" style="edgeStyle=orthogonalEdgeStyle;fontSize=12;html=1;endArrow=none;endFill=1;rounded=0;strokeWidth=2;endSize=4;startSize=4;dashed=0;strokeColor=#4284F3;" parent="1" source="LnH4s1OGak1gRik8abLK-811" target="LnH4s1OGak1gRik8abLK-825" edge="1">
                    <mxGeometry width="100" relative="1" as="geometry">
                        <mxPoint x="480" y="80" as="sourcePoint"/>
                        <mxPoint x="479.5" y="200" as="targetPoint"/>
                        <Array as="points"/>
                    </mxGeometry>
                </mxCell>
                <mxCell id="LnH4s1OGak1gRik8abLK-846" value="" style="sketch=0;outlineConnect=0;fontColor=#232F3E;gradientColor=none;fillColor=#4D27AA;strokeColor=none;dashed=0;verticalLabelPosition=bottom;verticalAlign=top;align=center;html=1;fontSize=12;fontStyle=0;aspect=fixed;pointerEvents=1;shape=mxgraph.aws4.nat_gateway;" parent="1" vertex="1">
                    <mxGeometry x="240" y="301.5" width="50" height="50" as="geometry"/>
                </mxCell>
                <mxCell id="LnH4s1OGak1gRik8abLK-854" value="All parts shown are part of 1 cloud network" style="whiteSpace=wrap;html=1;" parent="1" vertex="1">
                    <mxGeometry x="70" y="80" width="250" height="60" as="geometry"/>
                </mxCell>
            </root>
        </mxGraphModel>
    </diagram>
</mxfile>